PathFileType	4	(X/Y/Z)	./resultDataOpenSim/trcMotMarkerGrf/sub09/qtm-01-04.trc
DataRate	CameraRate	NumFrames	NumMarkers	Units	OrigDataRate	OrigDataStartFrame	OrigNumFrames
250.000000	250.000000	7	24	m	250.000000	293	468
Frame#	Time	L.Toe.Tip			R.Toe.Tip			L.Ankle.Lat			R.Ankle.Lat			L.Ankle.Med			R.Ankle.Med			L.Heel			R.Heel			L.Knee.Lat			R.Knee.Lat			L.Knee.Med			R.Knee.Med			L.Thigh.Upper			R.Thigh.Upper			L.ASIS			R.ASIS			V.Sacral			L.Acromium			R.Acromium			C7			L.Elbow			R.Elbow			L.Wrist.Lat			R.Wrist.Lat
		X1	Y1	Z1	X2	Y2	Z2	X3	Y3	Z3	X4	Y4	Z4	X5	Y5	Z5	X6	Y6	Z6	X7	Y7	Z7	X8	Y8	Z8	X9	Y9	Z9	X10	Y10	Z10	X11	Y11	Z11	X12	Y12	Z12	X13	Y13	Z13	X14	Y14	Z14	X15	Y15	Z15	X16	Y16	Z16	X17	Y17	Z17	X18	Y18	Z18	X19	Y19	Z19	X20	Y20	Z20	X21	Y21	Z21	X22	Y22	Z22	X23	Y23	Z23	X24	Y24	Z24

293	1.168	0.17851389	0.040406148	0.02870458	1.0249997	0.073111982	0.12818199	0.066334504	0.13687186	-0.019526008	0.87530544	0.056610246	0.15921806	0.094838937	0.14556705	0.075379821	0.88135246	0.098859028	0.069217518	-0.011717149	0.14308595	0.026096435	0.81734581	0.023063629	0.10664296	0.34507476	0.45372377	-0.067595961	0.76843658	0.50147269	0.21421547	0.3505136	0.45036414	0.057315153	0.766816	0.48558376	0.088165189	0.49195215	0.84176029	-0.10187935	0.55491885	0.84157354	0.26513392	0.60535376	0.91364224	-0.06163909	0.62893399	0.9266316	0.18069041	0.45173052	0.97547811	0.076083878	0.61425772	1.3774478	-0.089500318	0.56759803	1.38498	0.23876411	0.5242086	1.4292315	0.067943395	0.48883013	1.0271393	-0.17499354	0.4087072	1.0588407	0.31266315	0.70125143	0.85919588	-0.14754325	0.51624037	0.81815654	0.37691015
294	1.172	0.17915046	0.040540435	0.028375846	1.0299204	0.067947004	0.12702682	0.069920517	0.14012934	-0.021023652	0.87981309	0.05609088	0.1597843	0.098537296	0.14822644	0.073811739	0.88623948	0.097890765	0.06947276	-0.0077941136	0.14822947	0.024558961	0.81985093	0.025143165	0.10747779	0.35365224	0.45273317	-0.068121027	0.77641132	0.50119124	0.214199	0.3592943	0.44874661	0.056795937	0.77391932	0.48452113	0.088100374	0.50043375	0.84048085	-0.10114108	0.56435762	0.84136682	0.26563366	0.61375148	0.91253287	-0.060998503	0.63712856	0.92666394	0.18094806	0.45978664	0.97508463	0.07596941	0.62125282	1.3769002	-0.089256345	0.57486662	1.3844177	0.23918422	0.53132225	1.4286719	0.068361137	0.49555599	1.0267382	-0.17458182	0.41667145	1.058063	0.31305263	0.70708016	0.85768925	-0.147663	0.52402862	0.81742232	0.37734484
295	1.176	0.17969782	0.040676251	0.028050344	1.0339374	0.063292111	0.12619109	0.073698812	0.14351616	-0.022543216	0.88418836	0.055318341	0.16054076	0.10254244	0.15100051	0.07220429	0.89001311	0.096798977	0.070004478	-0.0035398874	0.15363169	0.023074479	0.82228492	0.02678005	0.10878996	0.36261999	0.45177061	-0.068806861	0.78495133	0.50158631	0.21407148	0.36826022	0.44702303	0.05636766	0.78097091	0.48386517	0.088138917	0.50897478	0.83918002	-0.1004921	0.57381102	0.84139543	0.26611925	0.62214516	0.91151798	-0.060372569	0.64522844	0.9268166	0.18125301	0.46766207	0.97491856	0.075312327	0.6282522	1.3764501	-0.089030222	0.58216844	1.3839189	0.23960971	0.53848768	1.4281971	0.068770995	0.50229003	1.0264049	-0.17411249	0.42469339	1.0573471	0.31354776	0.71284993	0.85618767	-0.14781915	0.53184645	0.81672965	0.37775443
296	1.18	0.18014783	0.04083654	0.027730753	1.0370967	0.058744508	0.12564427	0.077641415	0.14707922	-0.024063239	0.88810268	0.054448185	0.16127214	0.10688207	0.15388245	0.070533858	0.89295384	0.095842366	0.070641687	0.0010845876	0.15929302	0.021692305	0.82436896	0.028091427	0.11021403	0.37192725	0.45080629	-0.069613542	0.79422976	0.50270203	0.21373843	0.37726691	0.44523968	0.056050789	0.78800165	0.48371297	0.088291897	0.51754985	0.83791101	-0.099937792	0.58317787	0.84168349	0.26657163	0.63048543	0.91059995	-0.059739129	0.65323469	0.92709112	0.18163002	0.47539186	0.97482845	0.074521611	0.63526085	1.3761039	-0.088815665	0.58950897	1.3834901	0.24002495	0.54567817	1.4277916	0.069161173	0.50903017	1.0261559	-0.17358528	0.43271168	1.0567131	0.31411439	0.71855389	0.85470259	-0.14801004	0.5396936	0.81608775	0.37813345
297	1.184	0.18057408	0.041056964	0.027419074	1.0396122	0.054219849	0.1250591	0.08177621	0.15083573	-0.025567213	0.89140713	0.053648859	0.16180277	0.11161985	0.1568562	0.068792987	0.89543028	0.095170183	0.071151332	0.0061181608	0.16517081	0.020436914	0.82595202	0.029212468	0.11151048	0.38149104	0.44978818	-0.070490496	0.80403159	0.50439898	0.21328986	0.38642951	0.44351468	0.055595626	0.79508068	0.48406285	0.08853213	0.5261352	0.83669133	-0.099493264	0.59237333	0.84222248	0.26699694	0.63873375	0.90976356	-0.059063524	0.66116166	0.92749354	0.18208634	0.48309203	0.97462368	0.074178179	0.64228043	1.3758525	-0.088607233	0.59689796	1.3831302	0.24041708	0.55287475	1.427446	0.069533219	0.51577641	1.0259976	-0.17300834	0.44064231	1.056164	0.31462413	0.72418149	0.85323805	-0.14823669	0.54757573	0.81550032	0.37848415
298	1.188	0.18111636	0.041389665	0.027110957	1.0416308	0.050057957	0.12406648	0.086195897	0.15475742	-0.02703974	0.8940733	0.053009622	0.16198394	0.11682306	0.15989874	0.066995156	0.89750596	0.094727684	0.071294326	0.011585042	0.17120307	0.019304665	0.82702819	0.030146328	0.11252382	0.39133499	0.44868231	-0.071441057	0.81397674	0.50638397	0.21290855	0.3959785	0.44191417	0.054726918	0.80225032	0.48481599	0.088812313	0.53471732	0.83550778	-0.099144534	0.60134167	0.8429765	0.26742634	0.64687706	0.90898932	-0.058316265	0.66902224	0.92801192	0.18260616	0.49086722	0.97424048	0.074463282	0.64931021	1.3756815	-0.088400538	0.60433654	1.3828338	0.2407787	0.56006451	1.4271393	0.069893655	0.52252766	1.0259352	-0.17239559	0.44849711	1.0556866	0.31499537	0.72972776	0.85179477	-0.14849793	0.55549426	0.81496963	0.37880849
299	1.192	0.18190832	0.041898627	0.026797737	1.0431893	0.046782121	0.1225823	0.091015567	0.15879639	-0.028460081	0.89609275	0.052580371	0.16175189	0.12252718	0.1629973	0.065170528	0.89902738	0.094353335	0.070961086	0.01749346	0.17734396	0.018274114	0.82770574	0.030814898	0.11312871	0.40156598	0.44749443	-0.072492238	0.82387471	0.50831897	0.21265948	0.40599661	0.44032192	0.053496899	0.80949482	0.4858269	0.089076003	0.54329479	0.83434526	-0.09881359	0.61004795	0.84388513	0.26789302	0.65493668	0.90827365	-0.057485577	0.67681188	0.92861596	0.1831568	0.49874268	0.97377497	0.075060563	0.65635099	1.3755839	-0.088191032	0.61180852	1.382606	0.24110832	0.56723413	1.4268444	0.070237311	0.52927861	1.0259865	-0.17175957	0.456403	1.0552743	0.31529362	0.73519455	0.85037985	-0.14878683	0.56344594	0.81450519	0.37910543
